<svg xmlns="http://www.w3.org/2000/svg" width="1200" height="760" viewBox="0 0 1200 760" role="img" aria-labelledby="title desc">
  <title id="title">예약이 긴 베스트셀러 대신 고르는 전자책 후보</title>
  <desc id="desc">예약 대기 중인 책과 바로 읽을 수 있는 대체 전자책 후보를 함께 비교하는 대표 이미지</desc>
  <rect width="1200" height="760" fill="#f6f5f2"/>
  <rect x="92" y="80" width="1016" height="600" rx="44" fill="#ffffff"/>
  <text x="144" y="158" fill="#1d1d1f" font-family="Arial, sans-serif" font-size="42" font-weight="800">예약 대신 오늘 읽기</text>
  <text x="144" y="202" fill="#6e6e73" font-family="Arial, sans-serif" font-size="22">대기 중인 베스트셀러와 바로 열리는 후보를 함께 비교합니다.</text>
  <g transform="translate(144 284)">
    <rect width="196" height="276" rx="24" fill="#f4f4f6" stroke="#e5e5ea"/>
    <rect x="44" y="44" width="108" height="154" rx="14" fill="#d9d6cf"/>
    <rect x="60" y="72" width="76" height="10" rx="5" fill="#8e8e93"/>
    <rect x="60" y="96" width="58" height="10" rx="5" fill="#b6b6bc"/>
    <rect x="50" y="218" width="96" height="30" rx="15" fill="#ececf1"/>
    <text x="68" y="239" fill="#6e6e73" font-family="Arial, sans-serif" font-size="15" font-weight="700">예약</text>
  </g>
  <path d="M392 422h132" stroke="#d1d1d6" stroke-width="6" stroke-linecap="round"/>
  <path d="M500 392l36 30-36 30" fill="none" stroke="#d1d1d6" stroke-width="6" stroke-linecap="round" stroke-linejoin="round"/>
  <g transform="translate(572 248)">
    <rect width="156" height="226" rx="22" fill="#fbf7ec" stroke="#eadfca"/>
    <rect x="34" y="38" width="88" height="126" rx="12" fill="#e9bd62"/>
    <rect x="48" y="66" width="60" height="8" rx="4" fill="#7a5318"/>
    <rect x="48" y="88" width="44" height="8" rx="4" fill="#b17a21"/>
    <text x="38" y="194" fill="#1d1d1f" font-family="Arial, sans-serif" font-size="18" font-weight="780">후보 1</text>
  </g>
  <g transform="translate(760 248)">
    <rect width="156" height="226" rx="22" fill="#eef6f2" stroke="#d8e7df"/>
    <rect x="34" y="38" width="88" height="126" rx="12" fill="#78b593"/>
    <rect x="48" y="66" width="60" height="8" rx="4" fill="#1f6d45"/>
    <rect x="48" y="88" width="50" height="8" rx="4" fill="#3b8f61"/>
    <text x="38" y="194" fill="#1d1d1f" font-family="Arial, sans-serif" font-size="18" font-weight="780">후보 2</text>
  </g>
  <g transform="translate(948 248)">
    <rect width="156" height="226" rx="22" fill="#eef3fb" stroke="#dce5f2"/>
    <rect x="34" y="38" width="88" height="126" rx="12" fill="#7194ca"/>
    <rect x="48" y="66" width="60" height="8" rx="4" fill="#284d83"/>
    <rect x="48" y="88" width="42" height="8" rx="4" fill="#5177ae"/>
    <text x="38" y="194" fill="#1d1d1f" font-family="Arial, sans-serif" font-size="18" font-weight="780">후보 3</text>
  </g>
  <rect x="572" y="516" width="532" height="58" rx="29" fill="#f2f2f7"/>
  <text x="618" y="553" fill="#1d1d1f" font-family="Arial, sans-serif" font-size="21" font-weight="760">대체 후보는 제목, 저자, 표지를 같이 대조</text>
</svg>
