<svg xmlns="http://www.w3.org/2000/svg" width="1200" height="760" viewBox="0 0 1200 760" role="img" aria-labelledby="title desc">
  <title id="title">전자책으로 시작하는 경제경영 입문서</title>
  <desc id="desc">경제경영 입문 전자책 후보를 검색하고 실행 목록으로 관리하는 대표 이미지</desc>
  <rect width="1200" height="760" fill="#f4f7f6"/>
  <rect x="94" y="82" width="1012" height="596" rx="44" fill="#ffffff"/>
  <text x="146" y="158" fill="#1d1d1f" font-family="Arial, sans-serif" font-size="42" font-weight="800">경제경영 첫 책 고르기</text>
  <text x="146" y="202" fill="#6e6e73" font-family="Arial, sans-serif" font-size="22">오늘 읽을 한 권과 다음 후보를 분리해서 봅니다.</text>
  <g transform="translate(148 276)">
    <rect width="300" height="310" rx="30" fill="#111827"/>
    <text x="36" y="66" fill="#ffffff" font-family="Arial, sans-serif" font-size="30" font-weight="800">이번 주 실행</text>
    <rect x="36" y="110" width="228" height="46" rx="23" fill="#dff7ea"/>
    <text x="62" y="141" fill="#146c43" font-family="Arial, sans-serif" font-size="18" font-weight="760">바로 읽을 후보</text>
    <rect x="36" y="176" width="180" height="18" rx="9" fill="#ffffff" opacity="0.9"/>
    <rect x="36" y="212" width="224" height="18" rx="9" fill="#ffffff" opacity="0.62"/>
    <rect x="36" y="248" width="152" height="18" rx="9" fill="#ffffff" opacity="0.42"/>
  </g>
  <g transform="translate(520 258)">
    <rect width="154" height="240" rx="22" fill="#eff6ff" stroke="#dbeafe"/>
    <rect x="36" y="42" width="82" height="118" rx="12" fill="#3b82f6"/>
    <rect x="50" y="68" width="54" height="8" rx="4" fill="#bfdbfe"/>
    <rect x="50" y="90" width="42" height="8" rx="4" fill="#93c5fd"/>
    <text x="35" y="196" fill="#1d1d1f" font-family="Arial, sans-serif" font-size="18" font-weight="760">돈 관리</text>
  </g>
  <g transform="translate(710 258)">
    <rect width="154" height="240" rx="22" fill="#f0fdf4" stroke="#dcfce7"/>
    <rect x="36" y="42" width="82" height="118" rx="12" fill="#22c55e"/>
    <rect x="50" y="68" width="54" height="8" rx="4" fill="#bbf7d0"/>
    <rect x="50" y="90" width="46" height="8" rx="4" fill="#86efac"/>
    <text x="35" y="196" fill="#1d1d1f" font-family="Arial, sans-serif" font-size="18" font-weight="760">습관</text>
  </g>
  <g transform="translate(900 258)">
    <rect width="154" height="240" rx="22" fill="#fff7ed" stroke="#ffedd5"/>
    <rect x="36" y="42" width="82" height="118" rx="12" fill="#f97316"/>
    <rect x="50" y="68" width="54" height="8" rx="4" fill="#fed7aa"/>
    <rect x="50" y="90" width="38" height="8" rx="4" fill="#fdba74"/>
    <text x="35" y="196" fill="#1d1d1f" font-family="Arial, sans-serif" font-size="18" font-weight="760">트렌드</text>
  </g>
  <path d="M542 560h486" stroke="#d1d5db" stroke-width="8" stroke-linecap="round"/>
  <circle cx="634" cy="560" r="18" fill="#3b82f6"/>
  <circle cx="788" cy="560" r="18" fill="#22c55e"/>
  <circle cx="942" cy="560" r="18" fill="#f97316"/>
</svg>
