<svg xmlns="http://www.w3.org/2000/svg" width="1200" height="760" viewBox="0 0 1200 760" role="img" aria-labelledby="title desc">
  <title id="title">출퇴근 시간에 끊어 읽기 좋은 추리 전자책</title>
  <desc id="desc">짧은 이동 시간에 읽을 추리 전자책 후보를 검색하고 비교하는 대표 이미지</desc>
  <rect width="1200" height="760" fill="#f5f6f7"/>
  <rect x="92" y="84" width="1016" height="592" rx="44" fill="#ffffff"/>
  <text x="146" y="158" fill="#1d1d1f" font-family="Arial, sans-serif" font-size="42" font-weight="800">30분씩 읽는 추리</text>
  <text x="146" y="202" fill="#6e6e73" font-family="Arial, sans-serif" font-size="22">짧은 이동 시간에도 사건의 흐름이 남는 후보를 고릅니다.</text>
  <g transform="translate(144 290)">
    <rect width="912" height="132" rx="34" fill="#111827"/>
    <circle cx="84" cy="66" r="36" fill="#f8fafc"/>
    <rect x="66" y="52" width="36" height="28" rx="8" fill="#111827"/>
    <rect x="150" y="50" width="176" height="20" rx="10" fill="#f8fafc"/>
    <rect x="150" y="84" width="276" height="14" rx="7" fill="#cbd5e1"/>
    <rect x="706" y="38" width="126" height="56" rx="28" fill="#facc15"/>
    <text x="738" y="74" fill="#1d1d1f" font-family="Arial, sans-serif" font-size="20" font-weight="800">30분</text>
  </g>
  <g transform="translate(184 472)">
    <rect width="150" height="206" rx="22" fill="#f1f5f9" stroke="#e2e8f0"/>
    <rect x="34" y="36" width="82" height="118" rx="12" fill="#334155"/>
    <rect x="48" y="64" width="54" height="8" rx="4" fill="#cbd5e1"/>
    <rect x="48" y="86" width="40" height="8" rx="4" fill="#94a3b8"/>
  </g>
  <g transform="translate(390 472)">
    <rect width="150" height="206" rx="22" fill="#fef2f2" stroke="#fee2e2"/>
    <rect x="34" y="36" width="82" height="118" rx="12" fill="#991b1b"/>
    <rect x="48" y="64" width="54" height="8" rx="4" fill="#fecaca"/>
    <rect x="48" y="86" width="46" height="8" rx="4" fill="#fca5a5"/>
  </g>
  <g transform="translate(596 472)">
    <rect width="150" height="206" rx="22" fill="#f8fafc" stroke="#e2e8f0"/>
    <rect x="34" y="36" width="82" height="118" rx="12" fill="#475569"/>
    <rect x="48" y="64" width="54" height="8" rx="4" fill="#cbd5e1"/>
    <rect x="48" y="86" width="34" height="8" rx="4" fill="#94a3b8"/>
  </g>
  <g transform="translate(802 472)">
    <rect width="150" height="206" rx="22" fill="#fffbeb" stroke="#fef3c7"/>
    <rect x="34" y="36" width="82" height="118" rx="12" fill="#92400e"/>
    <rect x="48" y="64" width="54" height="8" rx="4" fill="#fde68a"/>
    <rect x="48" y="86" width="42" height="8" rx="4" fill="#fbbf24"/>
  </g>
</svg>
