<svg xmlns="http://www.w3.org/2000/svg" width="960" height="640" viewBox="0 0 960 640" role="img" aria-labelledby="title desc">
  <title id="title">Soulib library status example</title>
  <desc id="desc">A neutral Soulib detail example comparing library and provider borrowing status.</desc>
  <rect width="960" height="640" fill="#f5f5f7"/>
  <rect x="64" y="52" width="832" height="536" rx="36" fill="#fff" stroke="#e5e5ea" stroke-width="2"/>
  <text x="104" y="116" fill="#1d1d1f" font-family="Arial, sans-serif" font-size="40" font-weight="700">보유처 확인</text>
  <text x="104" y="154" fill="#6e6e73" font-family="Arial, sans-serif" font-size="22">도서관별 상태를 비교한 뒤 실제 대출 화면으로 이동합니다</text>
  <rect x="104" y="204" width="752" height="92" rx="22" fill="#fbfbfd" stroke="#e5e5ea"/>
  <text x="132" y="244" fill="#1d1d1f" font-family="Arial, sans-serif" font-size="26" font-weight="700">서울도서관</text>
  <text x="132" y="272" fill="#6e6e73" font-family="Arial, sans-serif" font-size="18">교보 전자도서관</text>
  <rect x="650" y="225" width="142" height="44" rx="22" fill="#e9f8ef"/>
  <text x="688" y="254" fill="#138a3d" font-family="Arial, sans-serif" font-size="20" font-weight="700">대출가능</text>
  <rect x="104" y="324" width="752" height="92" rx="22" fill="#fbfbfd" stroke="#e5e5ea"/>
  <text x="132" y="364" fill="#1d1d1f" font-family="Arial, sans-serif" font-size="26" font-weight="700">자치구 도서관</text>
  <text x="132" y="392" fill="#6e6e73" font-family="Arial, sans-serif" font-size="18">YES24 전자도서관</text>
  <rect x="650" y="345" width="142" height="44" rx="22" fill="#fff4d6"/>
  <text x="704" y="374" fill="#9a6a00" font-family="Arial, sans-serif" font-size="20" font-weight="700">예약</text>
  <rect x="104" y="444" width="752" height="92" rx="22" fill="#fbfbfd" stroke="#e5e5ea"/>
  <text x="132" y="484" fill="#1d1d1f" font-family="Arial, sans-serif" font-size="26" font-weight="700">구독형 서비스</text>
  <text x="132" y="512" fill="#6e6e73" font-family="Arial, sans-serif" font-size="18">공급사 화면에서 로그인 후 확인</text>
  <rect x="650" y="465" width="142" height="44" rx="22" fill="#edf0ff"/>
  <text x="704" y="494" fill="#4f46e5" font-family="Arial, sans-serif" font-size="20" font-weight="700">구독형</text>
</svg>
